
Genre: Action | Thriller
Language:English
IMDb:http://www.imdb.com/title/tt1519664/
Source:NTSC.DVDR
Subtitles:Romana


Format : MPEG-4
Format profile : Base Media
Codec ID : isom
File size : 1.34 GiB
Duration : 1h 41mn
Overall bit rate : 1 893 Kbps
Movie name : Ticking.Clock.2011.DvDRip.H264.Feel-Free


Video
Format settings, CABAC : Yes
Format settings, ReFrames : 4 frames
Format settings, GOP : M=4, N=32
Codec ID : avc1
Codec ID/Info : Advanced Video Coding
Duration : 1h 41mn
Bit rate mode : Variable
Bit rate : 1 500 Kbps
Width : 720 pixels
Height : 384 pixels
Display aspect ratio : 1.875
Frame rate mode : Constant
Frame rate : 23.976 fps
Color space : YUV
Chroma subsampling : 4:2:0
Bit depth : 8 bits
Scan type : Progressive
Bits/(Pixel*Frame) : 0.226
Stream size : 1.06 GiB (79%)

Audio
ID : 2
Format : AAC
Format/Info : Advanced Audio Codec
Format version : Version 4
Format profile : LC
Codec ID : 40
Duration : 1h 41mn
Bit rate mode : Variable
Bit rate : 384 Kbps
Channel(s) : 6 channels
Channel positions : Front: L C R, Side: L R, LFE
Sampling rate : 48.0 KHz
Stream size : 278 MiB (20%)

Plot:
A reporter stumbles upon the journal of a murderer replete with plans to butcher specific people, and investigates on his own, finding that every trail leads to a 9-year-old orphan living in a group home

